<svg xmlns="http://www.w3.org/2000/svg" viewBox="0 0 16 16">
  <!-- Tilemap grid -->
  <rect x="1" y="1" width="3" height="3" fill="#38b764"/>
  <rect x="5" y="1" width="3" height="3" fill="#38b764"/>
  <rect x="9" y="1" width="3" height="3" fill="#5bbef7"/>
  <rect x="13" y="1" width="2" height="3" fill="#5bbef7"/>
  <rect x="1" y="5" width="3" height="3" fill="#38b764"/>
  <rect x="5" y="5" width="3" height="3" fill="#a08060"/>
  <rect x="9" y="5" width="3" height="3" fill="#38b764"/>
  <rect x="13" y="5" width="2" height="3" fill="#5bbef7"/>
  <rect x="1" y="9" width="3" height="3" fill="#a08060"/>
  <rect x="5" y="9" width="3" height="3" fill="#a08060"/>
  <rect x="9" y="9" width="3" height="3" fill="#a08060"/>
  <rect x="13" y="9" width="2" height="3" fill="#38b764"/>
  <rect x="1" y="13" width="3" height="2" fill="#a08060"/>
  <rect x="5" y="13" width="3" height="2" fill="#706050"/>
  <rect x="9" y="13" width="3" height="2" fill="#706050"/>
  <rect x="13" y="13" width="2" height="2" fill="#a08060"/>
</svg>
